<svg width="24" height="24" viewBox="0 0 24 24" fill="none" xmlns="http://www.w3.org/2000/svg">
<path d="M10.7327 22C10.3794 22 10.0833 21.8802 9.84436 21.6406C9.60539 21.401 9.48591 21.1042 9.48591 20.75V13.25L2.25452 4C1.94282 3.58333 1.89607 3.14583 2.11426 2.6875C2.33244 2.22917 2.71168 2 3.25195 2H20.707C21.2473 2 21.6265 2.22917 21.8447 2.6875C22.0629 3.14583 22.0162 3.58333 21.7045 4L14.4731 13.25V20.75C14.4731 21.1042 14.3536 21.401 14.1146 21.6406C13.8757 21.8802 13.5795 22 13.2263 22H10.7327ZM11.9795 12.375L18.1511 4.5H5.80788L11.9795 12.375Z" fill="#5F6368"/>
</svg>
