<svg width="25" height="24" viewBox="0 0 25 24" fill="none" xmlns="http://www.w3.org/2000/svg">
<g clip-path="url(#clip0_307_1368)">
<g clip-path="url(#clip1_307_1368)">
<path d="M17.5 10.039C13.641 10.039 10.5 13.179 10.5 17.039C10.5 20.877 13.641 24 17.5 24C21.359 24 24.5 20.86 24.5 17C24.5 13.162 21.359 10.039 17.5 10.039ZM17.5 22C14.743 22 12.5 19.774 12.5 17.039C12.5 14.282 14.743 12.039 17.5 12.039C20.257 12.039 22.5 14.265 22.5 17C22.5 19.757 20.257 22 17.5 22ZM19.207 17.293C19.598 17.684 19.598 18.316 19.207 18.707C19.012 18.902 18.756 19 18.5 19C18.244 19 17.988 18.902 17.793 18.707L16.793 17.707C16.605 17.519 16.5 17.265 16.5 17V15C16.5 14.448 16.947 14 17.5 14C18.053 14 18.5 14.448 18.5 15V16.586L19.207 17.293ZM24.5 7V9C24.5 9.552 24.053 10 23.5 10C22.947 10 22.5 9.552 22.5 9V7C22.5 5.346 21.154 4 19.5 4H5.5C3.846 4 2.5 5.346 2.5 7V8H11.5C12.052 8 12.5 8.448 12.5 9C12.5 9.552 12.052 10 11.5 10H2.5V19C2.5 20.654 3.846 22 5.5 22H9.5C10.052 22 10.5 22.448 10.5 23C10.5 23.552 10.052 24 9.5 24H5.5C2.743 24 0.5 21.757 0.5 19V7C0.5 4.243 2.743 2 5.5 2H6.5V1C6.5 0.448 6.948 0 7.5 0C8.052 0 8.5 0.448 8.5 1V2H16.5V1C16.5 0.448 16.947 0 17.5 0C18.053 0 18.5 0.448 18.5 1V2H19.5C22.257 2 24.5 4.243 24.5 7Z" fill="#374957"/>
</g>
</g>
<defs>
<clipPath id="clip0_307_1368">
<rect width="24" height="24" fill="white" transform="translate(0.5)"/>
</clipPath>
<clipPath id="clip1_307_1368">
<rect width="24" height="24" fill="white" transform="translate(0.5)"/>
</clipPath>
</defs>
</svg>
