<svg width="24" height="24" viewBox="0 0 24 24" fill="none" xmlns="http://www.w3.org/2000/svg">
<path d="M19.949 5.535L16.465 2.051C15.143 0.729 13.385 0 11.515 0H7C4.243 0 2 2.243 2 5V19C2 21.757 4.243 24 7 24H17C19.757 24 22 21.757 22 19V10.485C22 8.615 21.271 6.857 19.949 5.535ZM18.535 6.949C18.85 7.264 19.099 7.624 19.316 8H15C14.448 8 14 7.552 14 7V2.684C14.376 2.901 14.736 3.15 15.051 3.465L18.535 6.949ZM20 19C20 20.654 18.654 22 17 22H7C5.346 22 4 20.654 4 19V5C4 3.346 5.346 2 7 2H11.515C11.68 2 11.838 2.032 12 2.047V7C12 8.654 13.346 10 15 10H19.953C19.969 10.162 20 10.32 20 10.485V19ZM15.213 13.533C14.626 12.025 13.178 11 11.5 11C9.294 11 7.5 12.794 7.5 15C7.5 15.069 7.502 15.138 7.506 15.206C6.621 15.592 6 16.475 6 17.5C6 18.879 7.122 20 8.5 20H14.75C16.542 20 18 18.542 18 16.75C18 15.115 16.786 13.759 15.213 13.533ZM14.75 18H8.5C8.224 18 8 17.775 8 17.5C8 17.225 8.224 17 8.565 16.992C8.91 17.031 9.253 16.895 9.471 16.624C9.688 16.352 9.748 15.986 9.629 15.659C9.54 15.412 9.5 15.209 9.5 15C9.5 13.897 10.397 13 11.5 13C12.484 13 13.31 13.709 13.465 14.687C13.55 15.226 14.089 15.591 14.639 15.514C15.363 15.414 16 16.024 16 16.75C16 17.439 15.439 18 14.75 18Z" fill="#374957"/>
</svg>
