<svg width="17" height="16" viewBox="0 0 17 16" fill="none" xmlns="http://www.w3.org/2000/svg">
<g clip-path="url(#clip0_267_632)">
<path d="M14.8915 2.66667H12.712C12.5488 1.91428 12.1171 1.23823 11.4896 0.752479C10.862 0.266727 10.0771 0.000969683 9.26698 0L7.86084 0C7.05075 0.000969683 6.26579 0.266727 5.63825 0.752479C5.01072 1.23823 4.57897 1.91428 4.41579 2.66667H2.23627C2.04981 2.66667 1.87098 2.7369 1.73913 2.86193C1.60728 2.98695 1.5332 3.15652 1.5332 3.33333C1.5332 3.51014 1.60728 3.67971 1.73913 3.80474C1.87098 3.92976 2.04981 4 2.23627 4H2.93934V12.6667C2.94046 13.5504 3.31118 14.3976 3.9702 15.0225C4.62921 15.6474 5.52271 15.9989 6.4547 16H10.6731C11.6051 15.9989 12.4986 15.6474 13.1576 15.0225C13.8166 14.3976 14.1874 13.5504 14.1885 12.6667V4H14.8915C15.078 4 15.2568 3.92976 15.3887 3.80474C15.5205 3.67971 15.5946 3.51014 15.5946 3.33333C15.5946 3.15652 15.5205 2.98695 15.3887 2.86193C15.2568 2.7369 15.078 2.66667 14.8915 2.66667ZM7.86084 1.33333H9.26698C9.70307 1.33384 10.1283 1.46225 10.4844 1.70096C10.8405 1.93967 11.11 2.27699 11.256 2.66667H5.87185C6.0178 2.27699 6.28729 1.93967 6.64339 1.70096C6.99949 1.46225 7.42474 1.33384 7.86084 1.33333ZM12.7823 12.6667C12.7823 13.1971 12.5601 13.7058 12.1646 14.0809C11.769 14.456 11.2325 14.6667 10.6731 14.6667H6.4547C5.8953 14.6667 5.35881 14.456 4.96326 14.0809C4.5677 13.7058 4.34548 13.1971 4.34548 12.6667V4H12.7823V12.6667Z" fill="#EC221F"/>
<path d="M7.15717 12.0003C7.34364 12.0003 7.52247 11.9301 7.65432 11.8051C7.78617 11.68 7.86024 11.5105 7.86024 11.3337V7.33366C7.86024 7.15685 7.78617 6.98728 7.65432 6.86225C7.52247 6.73723 7.34364 6.66699 7.15717 6.66699C6.97071 6.66699 6.79188 6.73723 6.66003 6.86225C6.52817 6.98728 6.4541 7.15685 6.4541 7.33366V11.3337C6.4541 11.5105 6.52817 11.68 6.66003 11.8051C6.79188 11.9301 6.97071 12.0003 7.15717 12.0003Z" fill="#EC221F"/>
<path d="M9.96967 12.0003C10.1561 12.0003 10.335 11.9301 10.4668 11.8051C10.5987 11.68 10.6727 11.5105 10.6727 11.3337V7.33366C10.6727 7.15685 10.5987 6.98728 10.4668 6.86225C10.335 6.73723 10.1561 6.66699 9.96967 6.66699C9.78321 6.66699 9.60438 6.73723 9.47253 6.86225C9.34067 6.98728 9.2666 7.15685 9.2666 7.33366V11.3337C9.2666 11.5105 9.34067 11.68 9.47253 11.8051C9.60438 11.9301 9.78321 12.0003 9.96967 12.0003Z" fill="#EC221F"/>
</g>
<defs>
<clipPath id="clip0_267_632">
<rect width="16.8737" height="16" fill="white" transform="translate(0.126953)"/>
</clipPath>
</defs>
</svg>
