<svg width="17" height="16" viewBox="0 0 17 16" fill="none" xmlns="http://www.w3.org/2000/svg">
<g clip-path="url(#clip0_267_628)">
<path d="M16.1942 0.765302C15.7162 0.312767 15.0684 0.0585938 14.393 0.0585938C13.7175 0.0585938 13.0697 0.312767 12.5917 0.765302L1.15696 11.608C0.829508 11.9167 0.569871 12.284 0.393074 12.6885C0.216278 13.093 0.12583 13.5268 0.126964 13.9646V15.3333C0.126964 15.5101 0.201037 15.6797 0.332888 15.8047C0.464739 15.9297 0.643568 16 0.830034 16H2.27344C2.73519 16.0012 3.19261 15.9156 3.61922 15.748C4.04584 15.5805 4.43317 15.3344 4.75879 15.024L16.1942 4.18064C16.6713 3.72743 16.9392 3.11328 16.9392 2.47297C16.9392 1.83266 16.6713 1.21851 16.1942 0.765302ZM3.76465 14.0813C3.36812 14.4548 2.83235 14.6651 2.27344 14.6666H1.5331V13.9646C1.53239 13.7019 1.58665 13.4416 1.69273 13.1989C1.79881 12.9562 1.95461 12.7359 2.1511 12.5506L10.8291 4.32197L12.4462 5.8553L3.76465 14.0813ZM15.1994 3.23797L13.4375 4.9093L11.8204 3.3793L13.583 1.70797C13.6892 1.60751 13.8152 1.52786 13.9538 1.47358C14.0925 1.41929 14.241 1.39143 14.391 1.39158C14.541 1.39174 14.6895 1.41991 14.828 1.47448C14.9666 1.52905 15.0924 1.60896 15.1983 1.70964C15.3043 1.81032 15.3883 1.9298 15.4455 2.06126C15.5028 2.19272 15.5322 2.33359 15.532 2.47581C15.5318 2.61804 15.5021 2.75885 15.4446 2.89019C15.387 3.02153 15.3027 3.14084 15.1966 3.2413L15.1994 3.23797Z" fill="#3F61E9"/>
</g>
<defs>
<clipPath id="clip0_267_628">
<rect width="16.8737" height="16" fill="white" transform="translate(0.126953)"/>
</clipPath>
</defs>
</svg>
